<?xml version="1.0" encoding="UTF-8" standalone="no"?>
<!-- Created with Inkscape (http://www.inkscape.org/) -->

<svg
   width="256mm"
   height="64mm"
   viewBox="0 0 256 64"
   version="1.1"
   id="svg115"
   inkscape:export-filename="1"
   inkscape:export-xdpi="25.4"
   inkscape:export-ydpi="25.4"
   xmlns:inkscape="http://www.inkscape.org/namespaces/inkscape"
   xmlns:sodipodi="http://sodipodi.sourceforge.net/DTD/sodipodi-0.dtd"
   xmlns="http://www.w3.org/2000/svg"
   xmlns:svg="http://www.w3.org/2000/svg">
  <sodipodi:namedview
     id="namedview117"
     pagecolor="#ffffff"
     bordercolor="#000000"
     borderopacity="0.25"
     inkscape:showpageshadow="2"
     inkscape:pageopacity="0.0"
     inkscape:pagecheckerboard="false"
     inkscape:deskcolor="#d1d1d1"
     inkscape:document-units="mm"
     showgrid="false"
     showguides="true" />
  <defs
     id="defs112" />
  <g
     inkscape:label="Слой 1"
     inkscape:groupmode="layer"
     id="layer1">
    <path
       d="m 10.162226,22.014126 c 1.147771,2.835818 0.346186,6.120312 2.622225,6.199329 0.820583,-0.0475 1.465399,-0.868352 0.758367,-3.578175 -0.406191,-1.347811 -0.942709,-2.679279 -1.766657,-3.974899 -0.07759,-0.13782 0.179916,-0.306051 0.676686,-0.496115 0.970309,-0.422943 1.94057,-0.845864 2.910861,-1.268815 1.076995,-0.412783 0.278488,-1.692985 -0.79071,-1.265121 -1.132468,0.493264 -2.237697,1.088514 -3.062636,1.723774 -0.817956,0.294178 -2.4120172,-5.214126 -2.7229022,-6.0608 -0.239101,-0.71508 2.1137332,-0.923695 3.4803362,-1.243923 1.378187,-0.405072 2.376696,-1.098268 3.125872,-1.980528 0.327643,-0.3857752 0.461865,-0.5401632 0.47551,-1.0677242 0.01304,-0.501317 -0.212044,-0.811306 -0.730351,-0.885438 -0.719399,-0.102907 -0.747683,0.162487 -1.245283,0.598344 -1.131512,0.991261 -2.439168,1.7126162 -3.9341162,2.2039982 -0.706007,0.227955 -1.556742,0.757395 -1.869136,0.16547 -0.283196,-0.661007 -0.266632,-1.1438762 -0.478247,-1.4302822 -0.648118,-0.87703 -1.2444056,-0.189413 -1.4374964,0.6539132 -0.2361504,1.031074 0.2112429,1.623146 0.1718085,1.859984 -0.073645,0.441334 -2.2146578,0.840063 -2.855469,3.484325 -0.2664059,1.341483 -0.1762793,2.009677 0.4856446,3.107864 1.1588049,1.92217 2.5917872,-0.551469 1.4675509,-1.312231 -2.4923713,-2.56537 1.167983,-5.028227 1.4453004,-3.287176 l 2.05152,5.082852 c 0.115485,0.26252 0.231026,0.525061 0.346534,0.787558 0.277273,0.461097 -0.633896,0.960987 -1.025,1.28403 -0.208979,0.172495 -0.248029,0.176482 -0.252162,0.477599 -0.0033,0.283038 0.129696,0.46431 0.397634,0.545996 0.27653,0.08419 0.274289,0.03241 0.485712,-0.129249 0.194228,-0.148564 0.388524,-0.297151 0.582797,-0.445693 0.343191,-0.24719 0.5776522,-0.180514 0.6858072,0.251133 z m 15.44686,-4.803765 h 0.01553 c 0.09177,1.598805 -0.353644,4.987129 1.708824,5.343477 2.317418,0.40044 3.784487,-3.116007 4.522721,-4.900385 -0.179636,1.330375 -0.403061,3.084479 0.239855,4.052303 0.678766,1.021896 2.251376,0.637069 3.107573,0.01824 1.75405,-1.267832 3.324979,-4.389495 3.795263,-5.380652 0.448439,-0.945176 0.935458,-2.159956 0.265562,-1.695442 -0.37357,0.25905 -1.093316,1.736108 -2.014361,3.203348 -0.645358,1.02802 -1.472344,2.04601 -2.010419,2.602829 -0.960221,0.99365 -1.113572,0.370774 -1.033859,-0.498279 0.141976,-1.548384 0.09785,-3.021127 0.251837,-4.574988 0.05483,-0.554116 0.07048,-1.220137 0.314114,-1.718272 l 0.918778,-1.633707 c 0.339895,-0.656516 0.661039,-1.43505 0.920868,-2.1276372 0.806134,-2.148722 1.593743,-4.667119 0.911687,-6.046157 -0.619394,-0.794116 -1.490589,-0.811736 -2.14578,-0.271362 -1.870014,1.160322 -2.344289,6.360188 -3.03087,10.2455062 l -0.121215,0.923912 c -0.652918,1.990967 -1.592026,4.025749 -2.829451,5.73235 -0.957455,1.320455 -1.240531,-0.127133 -1.281426,-1.158293 -0.07038,-1.573222 -0.131883,-2.943162 -0.2022,-4.516361 -0.02485,-0.556346 0.07735,-0.937967 0.247273,-1.465841 l 0.53777,-1.54915 c 0.242468,-0.698402 0.388783,-1.228259 0.546933,-1.9509562 0.490588,-2.241957 1.008176,-4.961812 0.03747,-6.114367 -0.720848,-0.856179 -1.591343,-0.590227 -2.162502,0.03829 -1.572086,1.399509 -1.342716,6.6202702 -1.534445,10.5737162 -0.822193,3.40506 -1.688825,6.147983 -2.538253,7.290364 -1.0802,1.63978 -1.612269,-5.576467 -1.58418,-6.24902 0.04301,-2.174505 0.0519,-4.548039 -1.30193,-3.10551 -1.040744,0.944498 -1.314603,2.045512 -1.08773,3.248702 0.311323,1.989968 0.622648,3.979878 0.933983,5.969846 0.25584,1.584423 0.924621,2.342832 2.097131,2.093884 0.816247,-0.180776 1.560463,-0.78529 2.160985,-2.233483 0.560882,-1.317887 0.982554,-2.715209 1.344325,-4.146913 z m 29.686489,2.78367 c 0.13265,-0.213141 0.267084,-0.423941 0.41232,-0.621163 0.420728,-0.57102 0.752288,-1.070561 1.505496,-1.174929 1.491242,-0.206646 2.376595,0.0029 1.17125,1.467699 -0.6553,0.871203 -1.382222,1.642214 -2.110771,2.41095 -0.249936,0.215781 -0.877299,1.501588 -1.234994,2.196847 -0.500281,0.972409 -0.81886,1.453085 -1.135069,2.131527 -0.262058,0.626537 0.272689,0.786903 1.093291,0.534093 1.054627,-0.248261 4.134933,-2.387829 5.23347,-3.361834 0.770485,-0.683085 1.418243,-0.529463 0.424224,0.38127 -1.647583,1.416084 -3.394579,2.819295 -5.478977,3.93663 -1.511534,0.61426 -2.570641,0.317029 -3.289576,-0.500554 -0.447257,-0.508637 -0.440813,-0.762519 -0.227379,-1.435422 0.289491,-0.912716 0.912139,-1.896656 1.675496,-3.02825 -1.047292,0.805634 -2.163501,1.567724 -3.398069,2.229512 -1.511509,0.614282 -3.045168,0.170854 -3.674042,-0.717887 -0.424455,-0.599799 -0.285214,-0.82178 -0.07184,-1.494685 0.658097,-2.074684 1.93493,-3.717686 2.997482,-5.527563 0.10202,-0.173726 0.362538,-0.634262 0.610781,-1.039004 0.398668,-0.650072 0.375586,-0.69803 1.079012,-0.934868 0.888819,-0.299403 1.945194,-0.428484 2.244096,-0.286836 0.586715,0.07132 0.42775,0.678669 -0.140154,1.422132 -0.369496,0.483659 -1.077972,1.101825 -1.538314,1.647506 -0.53914,0.639081 -0.912498,1.187387 -1.130824,1.595147 -0.44917,0.838781 -1.392547,2.468355 -1.636264,2.892617 -0.329014,0.572798 -0.324732,1.260311 0.02692,1.518178 0.197503,0.144892 0.572054,0.07219 1.029321,-0.0687 0.407587,-0.09596 1.185528,-0.392059 1.971505,-0.86957 1.065074,-0.647099 2.114495,-1.457158 2.847765,-2.077105 0.308692,-0.394741 0.515303,-0.797049 0.74382,-1.225735 z M 41.726877,16.151748 c 0.168952,-0.327468 0.138389,-0.411958 -0.128897,-0.461897 -1.079409,-0.550042 -1.973881,-1.220963 -2.01971,-2.446822 0.0024,-0.707455 0.220702,-1.641077 0.8821,-2.026007 1.329217,-0.773532 2.650057,1.409122 1.189305,3.253149 -0.296344,0.23673 -0.232026,0.40666 0.07691,0.531301 0.623287,0.124633 0.990217,0.07701 1.613505,0.201669 1.740026,0.165649 -0.4059,3.827097 -0.738661,5.0007 -0.165461,0.583492 -0.216163,1.082872 -0.323416,1.401759 -0.10213,0.671417 0.267517,0.713696 1.00223,0.269241 0.962841,-0.496799 3.549787,-3.336504 4.379083,-4.548047 0.581637,-0.849694 1.24736,-0.857857 0.504112,0.266908 -1.254598,1.77367 -2.608779,3.558931 -4.359612,5.148785 -1.317253,0.962786 -2.486899,1.022377 -3.31274,0.312874 -0.557338,-0.478875 -0.476152,-0.727923 -0.432431,-1.432565 0.08975,-1.446502 0.567487,-3.018214 1.668259,-5.471048 z M 34.797322,11.55963 c 0.04088,-0.261214 0.596452,-4.8352682 1.277192,-6.6100222 0.219958,-0.573486 0.478235,-0.912882 0.803307,-0.657836 0.413558,0.32449 0.0608,1.354876 -0.03929,1.78142 -0.258422,1.10141 -0.611658,2.37446 -0.71916,2.699404 -0.68451,2.0696432 -1.482512,3.8927422 -1.32209,2.7870342 z m -7.111415,0.186068 c 0.0024,-0.264378 -0.101229,-4.8708562 0.318676,-6.7247392 0.135665,-0.599053 0.342752,-0.971911 0.70094,-0.765985 0.455762,0.262046 0.254,1.332269 0.215962,1.768755 -0.09819,1.127024 -0.265774,2.437499 -0.325682,2.774488 -0.381551,2.1462852 -0.910573,4.0647822 -0.909896,2.9474812 z m -8.94215,-2.1064222 c -1.494281,-2.441661 1.565044,-4.017481 1.911756,-2.307313 0.389165,1.712661 -1.098056,3.5107952 -1.911756,2.307313"
       style="fill:#ffffff;fill-opacity:1;fill-rule:evenodd;stroke:#000000;stroke-width:0.109341;stroke-dasharray:none"
       id="path1374" />
  </g>
</svg>
