<?xml version="1.0" encoding="UTF-8" standalone="no"?>
<!-- Created with Inkscape (http://www.inkscape.org/) -->

<svg
   width="256mm"
   height="64mm"
   viewBox="0 0 256 64"
   version="1.1"
   id="svg115"
   inkscape:export-filename="1.svg"
   inkscape:export-xdpi="25.4"
   inkscape:export-ydpi="25.4"
   xml:space="preserve"
   xmlns:inkscape="http://www.inkscape.org/namespaces/inkscape"
   xmlns:sodipodi="http://sodipodi.sourceforge.net/DTD/sodipodi-0.dtd"
   xmlns="http://www.w3.org/2000/svg"
   xmlns:svg="http://www.w3.org/2000/svg"><sodipodi:namedview
     id="namedview117"
     pagecolor="#ffffff"
     bordercolor="#000000"
     borderopacity="0.25"
     inkscape:showpageshadow="2"
     inkscape:pageopacity="0.0"
     inkscape:pagecheckerboard="false"
     inkscape:deskcolor="#d1d1d1"
     inkscape:document-units="mm"
     showgrid="false"
     showguides="true" /><defs
     id="defs112" /><g
     inkscape:label="Слой 1"
     inkscape:groupmode="layer"
     id="layer1"><path
       fill="#0069ff"
       fill-rule="evenodd"
       d="M 9.3539746,9.6756425 A 6.5780838,6.5780838 0 1 0 15.20886,15.548666 6.5698852,6.5698852 0 0 0 9.3539746,9.6756425 Z M 9.1408156,19.698662 A 3.5087834,3.5087834 0 1 1 12.153348,16.676689 3.507417,3.507417 0 0 1 9.1408156,19.698662 Z M 18.727208,9.935879 A 1.5348366,1.5348366 0 0 0 17.22914,11.78772 c 0.144342,0.723196 0.819839,1.217335 1.555705,1.217335 h 4.270364 l -6.645658,8.794629 a 0.43836502,0.43836502 0 0 0 0.34781,0.702949 h 10.424367 c 0.73537,0 1.411365,-0.494015 1.555705,-1.217336 a 1.5349607,1.5349607 0 0 0 -1.497447,-1.852089 h -5.203115 l 6.640566,-8.787796 A 0.44246421,0.44246421 0 0 0 28.326023,9.935879 Z m 41.655111,0.035402 a 1.5579411,1.5579411 0 0 0 -1.197337,1.540302 v 5.110077 l -8.280241,-6.589264 a 0.44035251,0.44035251 0 0 0 -0.714128,0.346071 v 10.551195 a 1.5578169,1.5578169 0 0 0 1.197337,1.540301 1.5329733,1.5329733 0 0 0 1.8624,-1.49931 v -5.154297 l 8.280362,6.589387 a 0.44022829,0.44022829 0 0 0 0.713881,-0.345947 V 11.470095 A 1.5329733,1.5329733 0 0 0 60.382319,9.971281 Z M 38.82281,12.71128 c 3.502324,0 6.119223,1.850847 6.119223,3.506423 0,1.655577 -2.616899,3.506423 -6.119223,3.506423 -3.502324,0 -6.119222,-1.850846 -6.119222,-3.506423 0,-1.655576 2.616898,-3.506423 6.119222,-3.506423 m 0,-3.0690521 c -5.069458,0 -9.178958,2.9439651 -9.178958,6.5754751 0,3.631511 4.1095,6.575475 9.178958,6.575475 5.069458,0 9.178835,-2.943964 9.178835,-6.575475 0,-3.63151 -4.109502,-6.5754751 -9.178835,-6.5754751 z"
       id="path586"
       style="stroke-width:0.124218" /></g></svg>
