<?xml version="1.0" encoding="UTF-8" standalone="no"?>
<!-- Created with Inkscape (http://www.inkscape.org/) -->

<svg
   width="256mm"
   height="64mm"
   viewBox="0 0 256 64"
   version="1.1"
   id="svg115"
   inkscape:export-filename="3.svg"
   inkscape:export-xdpi="25.4"
   inkscape:export-ydpi="25.4"
   xml:space="preserve"
   xmlns:inkscape="http://www.inkscape.org/namespaces/inkscape"
   xmlns:sodipodi="http://sodipodi.sourceforge.net/DTD/sodipodi-0.dtd"
   xmlns="http://www.w3.org/2000/svg"
   xmlns:svg="http://www.w3.org/2000/svg"><sodipodi:namedview
     id="namedview117"
     pagecolor="#ffffff"
     bordercolor="#000000"
     borderopacity="0.25"
     inkscape:showpageshadow="2"
     inkscape:pageopacity="0.0"
     inkscape:pagecheckerboard="false"
     inkscape:deskcolor="#d1d1d1"
     inkscape:document-units="mm"
     showgrid="false"
     showguides="true" /><defs
     id="defs112" /><g
     id="g873"
     transform="matrix(0.6333188,0,0,0.6333188,1.2021082,1.2548584)"><path
       d="m 5.9791734,7.2352256 c 2.695187,-1.9438055 6.1136736,-2.8574999 9.4192006,-2.4871185 3.728791,0.3457222 7.239,2.3530277 9.514381,5.3127979 1.294311,11.10622 21.040091,8.045414 26.179601,0.366924 4.94602,3.302 7.91281,9.313298 7.27079,15.261307 -8.41739,5.327791 -6.83207,5.446889 -7.03788,12.971568 -1.10071,2.092007 -3.16449,3.679507 -5.5245,4.007414 -2.1626,0.366995 -4.39572,-0.363185 -6.06432,-1.753305 -2.42359,4.557924 -8.05738,7.076792 -13.0634,5.729322 -4.388485,-1.055017 -7.9127,-4.861418 -8.660694,-9.313403 C 17.242555,33.825038 8.7767714,29.239527 2.7723534,26.429934 0.92386838,23.801705 -0.01102862,20.542038 0.26417338,17.335218 0.54646638,13.341809 2.7123454,9.5423217 5.9791734,7.2352256"
       style="fill:#7f1472;fill-opacity:1;fill-rule:nonzero;stroke:none;stroke-width:0.352778"
       id="path857" /><path
       d="m 31.269776,1.5237184 c 3.26319,-1.90849244 7.35189,-2.31418686 10.93258,-1.10768693 4.4697,1.43929803 7.99042,5.40448473 8.89,10.01179753 0.67031,3.150306 0.12351,6.519298 -1.46748,9.313298 -0.30343,-1.329902 -1.00553,-2.628089 -2.19781,-3.351318 -1.143,-0.6985 -2.52952,-0.769091 -3.8312,-0.797278 -2.794,0.007 -5.588,-0.0035 -8.382,0.007 0,3.552507 0,7.105015 0,10.661014 -1.40762,-0.338701 -2.76581,-0.85732 -4.03931,-1.541603 0.7408,-3.033889 1.4428,-6.081889 2.20479,-9.11232 -1.25938,-0.01757 -2.5153,-0.01757 -3.77108,0.0035 -0.4728,2.215479 -0.9597,4.423903 -1.4429,6.635785 -3.05502,-3.168015 -4.268716,-7.919896 -3.252611,-12.185015 0.825394,-3.5594924 3.175001,-6.7344923 6.357021,-8.5371866 z m 26.2255,0.8361186 c 2.6035,-0.9384242 5.48929,1.7497776 4.70609,4.4096867 -0.52561,2.617611 -4.10281,3.7606113 -6.03599,1.9084924 -2.17671,-1.7286111 -1.35121,-5.5949847 1.3299,-6.3181791 z m -18.58081,16.414679 c 1.84859,0.07059 3.7289,-0.165806 5.55978,0.127 1.89802,0.278694 2.03913,3.249118 0.28222,3.827709 -1.88732,0.560881 -3.89819,0.155187 -5.8384,0.271604 -0.007,-1.407619 -0.007,-2.818695 -0.004,-4.226313 z M 2.7723534,26.429934 c 1.534618,-2.984605 5.22111,-4.4698 8.4137136,-3.478529 0.864305,3.661903 1.711007,7.327229 2.589494,10.989133 1.344013,0.01757 2.688202,0.02117 4.032286,0 0.222108,-0.758508 0.441007,-1.520614 0.634999,-2.286106 0.455013,0.825606 1.104124,1.647472 1.033498,2.649502 0.04251,1.185192 -0.730179,2.180202 -1.463992,3.026798 -1.735702,1.619179 -4.751881,0.730179 -5.771409,-1.298222 -2.5894946,1.245305 -5.8983736,0.864305 -7.9939786,-1.150197 -2.321313,-2.074298 -2.917402,-5.715 -1.474611,-8.452379 z m 46.8384126,-0.50112 c 2.52938,-1.844887 6.14528,-2.049498 8.75238,-0.239678 2.08491,1.432102 3.37961,3.958096 3.22442,6.498096 -0.0953,2.585896 -1.68282,5.037702 -3.98642,6.208889 -1.91559,1.012401 -4.2792,1.093611 -6.27588,0.264583 -2.11321,-0.899583 -3.76421,-2.779995 -4.30749,-5.020098 3.1115,-0.910202 4.52617,-5.104694 2.59299,-7.711792"
       style="fill:#ef1a8a;fill-opacity:1;fill-rule:nonzero;stroke:none;stroke-width:0.352778"
       id="path859" /><path
       d="m 38.914466,26.249912 c -0.004,1.502904 -0.007,3.009194 0,4.515626 1.56641,0 3.13271,0.0036 4.699,0.0036 1.02659,0.01757 2.16959,-0.236502 2.80459,-1.114919 0.46221,-1.093611 0.19399,-2.733992 -1.083,-3.115098 -2.07789,-0.652604 -4.28628,-0.271604 -6.42059,-0.289207 z m 0,-7.475396 c -0.004,1.407618 -0.004,2.818694 0.004,4.226313 1.94021,-0.116417 3.95108,0.289277 5.8384,-0.271604 1.75691,-0.578591 1.6158,-3.549015 -0.28222,-3.827709 -1.83088,-0.292806 -3.71119,-0.05641 -5.55978,-0.127 z m -3.7006,-3.175 c 2.794,-0.01048 5.588,0 8.382,-0.007 1.30168,0.02819 2.6882,0.09878 3.8312,0.797278 1.19228,0.723229 1.89438,2.021416 2.19781,3.351318 0.0846,1.848591 -0.77262,3.704202 -2.44482,4.593202 0.89249,0.391583 1.7533,0.874888 2.43071,1.594485 1.93318,2.607098 0.51851,6.80159 -2.59299,7.711792 -3.89823,0.606707 -7.8704,0.169404 -11.80391,0.296298 0,-2.557674 0.003,-5.1187 0,-7.676374 0,-3.555999 0,-7.108507 0,-10.661014 z m -25.7387006,0 c 1.2699996,-0.007 2.5365076,-0.0035 3.8065076,-0.0035 0.889,4.162812 1.788583,8.32559 2.698785,12.481312 1.104194,-4.155722 2.144888,-8.332611 3.294909,-12.47782 1.46759,-0.007 2.938603,-0.01048 4.4063,0.0071 1.054699,4.247409 2.14129,8.487797 3.167799,12.738699 0.44091,-2.031894 0.88188,-4.063894 1.3159,-6.099386 0.4832,-2.211882 0.9701,-4.420306 1.4429,-6.635785 1.25578,-0.0211 2.5117,-0.0211 3.77108,-0.0035 -0.76199,3.030431 -1.46399,6.078431 -2.20479,9.11232 -0.7585,3.069202 -1.46039,6.14881 -2.22948,9.214484 -1.31233,0.01073 -2.62121,0.01073 -3.933508,0 -1.241813,-4.529701 -2.420126,-9.077007 -3.598298,-13.620784 -1.001994,3.778285 -1.996827,7.556499 -2.970424,11.341805 -0.193992,0.765492 -0.412891,1.527598 -0.634999,2.286106 -1.344084,0.02117 -2.688273,0.01757 -4.032286,0 -0.878487,-3.661904 -1.725189,-7.32723 -2.589494,-10.989133 -0.557213,-2.455298 -1.174609,-4.892993 -1.7109016,-7.351889"
       style="fill:#ffffff;fill-opacity:1;fill-rule:nonzero;stroke:none;stroke-width:0.352778"
       id="path861" /></g></svg>
