<?xml version="1.0" encoding="UTF-8" standalone="no"?>
<!-- Created with Inkscape (http://www.inkscape.org/) -->

<svg
   width="256mm"
   height="64mm"
   viewBox="0 0 256 64"
   version="1.1"
   id="svg115"
   inkscape:export-filename="4.svg"
   inkscape:export-xdpi="25.4"
   inkscape:export-ydpi="25.4"
   xml:space="preserve"
   xmlns:inkscape="http://www.inkscape.org/namespaces/inkscape"
   xmlns:sodipodi="http://sodipodi.sourceforge.net/DTD/sodipodi-0.dtd"
   xmlns:xlink="http://www.w3.org/1999/xlink"
   xmlns="http://www.w3.org/2000/svg"
   xmlns:svg="http://www.w3.org/2000/svg"><sodipodi:namedview
     id="namedview117"
     pagecolor="#ffffff"
     bordercolor="#000000"
     borderopacity="0.25"
     inkscape:showpageshadow="2"
     inkscape:pageopacity="0.0"
     inkscape:pagecheckerboard="false"
     inkscape:deskcolor="#d1d1d1"
     inkscape:document-units="mm"
     showgrid="false"
     showguides="true" /><defs
     id="defs112"><path
       id="SVGID_1_"
       d="m 183.8,232.3 c 22.2,0 40.1,-17.9 40.1,-40.1 0,-22.2 -17.9,-40.1 -40.1,-40.1 -22.2,0 -40.1,17.9 -40.1,40.1 -0.2,22.2 18,40.1 40.1,40.1 z" /></defs><style
     type="text/css"
     id="style905">
	.st0{fill:#FED42B;}
	.st1{fill:#FC3F1D;}
	.st2{fill:#FFFFFF;}
	.st3{clip-path:url(#SVGID_2_);}
</style><path
     d="m 29.285949,20.359307 h 1.158968 l 1.619921,-6.018731 v 6.018731 h 1.303839 v -7.954734 h -1.791132 l -1.619921,5.83435 -1.619921,-5.83435 H 26.50706 v 7.954734 h 1.119458 v -6.018731 z m 9.535145,-3.937856 c 0,-1.4092 -0.698014,-1.936004 -2.146724,-1.936004 -0.908736,0 -1.619921,0.276572 -2.041364,0.526804 v 1.119458 c 0.355592,-0.276572 1.158968,-0.566314 1.870153,-0.566314 0.671674,0 0.948246,0.250231 0.948246,0.842885 v 0.316083 h -0.210721 c -2.080875,0 -3.029121,0.698014 -3.029121,1.870152 0,1.172138 0.698015,1.830643 1.764792,1.830643 0.803375,0 1.158968,-0.250232 1.4092,-0.526804 h 0.06585 c 0,0.144871 0.06585,0.355593 0.105361,0.460953 h 1.343349 c -0.03951,-0.460953 -0.06585,-0.948246 -0.06585,-1.409199 -0.01317,0 -0.01317,-2.528657 -0.01317,-2.528657 z m -1.369689,2.568167 c -0.171211,0.250232 -0.487293,0.460953 -0.987757,0.460953 -0.566314,0 -0.842885,-0.355592 -0.842885,-0.842886 0,-0.671674 0.460953,-0.908736 1.659431,-0.908736 h 0.210721 v 1.303839 h -0.03951 z m 3.727136,-4.39881 h -1.264329 v 7.427931 h 1.369689 v -2.317936 c 0.355593,0.526804 0.842886,0.777035 1.44871,0.777035 1.343349,0 2.252086,-1.053607 2.252086,-2.98961 0,-1.936003 -0.882397,-2.989611 -2.186235,-2.989611 -0.632165,0 -1.158968,0.276572 -1.554071,0.842886 0.01317,-0.01317 -0.06585,-0.750695 -0.06585,-0.750695 z m 1.172138,4.820253 c -0.698015,0 -1.093118,-0.592654 -1.093118,-1.896493 0,-1.343349 0.381933,-1.936003 1.158968,-1.936003 0.737525,0 1.119458,0.592654 1.119458,1.896493 0,1.343349 -0.381933,1.936003 -1.185308,1.936003 z m 6.887957,0.948246 h 1.55407 l -2.186235,-3.094971 1.936004,-2.673528 h -1.36969 l -1.936003,2.673528 v -2.673528 h -1.369689 v 5.768499 h 1.369689 v -2.818399 z m 6.124091,-0.381932 v -1.119458 c -0.421442,0.276572 -1.119457,0.526804 -1.791132,0.526804 -0.987757,0 -1.369689,-0.460953 -1.44871,-1.44871 h 3.266183 v -0.737525 c 0,-2.001854 -0.882396,-2.739379 -2.252086,-2.739379 -1.659431,0 -2.462807,1.264329 -2.462807,3.029121 0,2.001853 0.987757,2.98961 2.713039,2.98961 0.961417,-0.01317 1.593581,-0.223891 1.975513,-0.500463 z m -2.212575,-4.39881 c 0.671675,0 0.882396,0.566314 0.882396,1.264328 v 0.105361 h -1.909663 c 0.03951,-0.908736 0.395103,-1.369689 1.027267,-1.369689 z m 7.138189,0.10536 V 14.590808 H 55.71832 v 1.093117 h 1.619921 v 4.675382 h 1.369689 v -4.675382 z"
     id="path907"
     style="fill:#ffffff;stroke-width:0.131701" /><path
     class="st0"
     d="m 18.381115,21.768507 c 2.92376,0 5.281206,-2.357446 5.281206,-5.281206 0,-2.92376 -2.357446,-5.281206 -5.281206,-5.281206 -2.92376,0 -5.281206,2.357446 -5.281206,5.281206 -0.02634,2.92376 2.370616,5.281206 5.281206,5.281206 z"
     id="path909"
     style="stroke-width:0.131701" /><circle
     class="st1"
     cx="7.0943475"
     cy="16.487301"
     r="5.2812057"
     id="circle911"
     style="stroke-width:0.131701" /><path
     class="st2"
     d="M 7.8582128,14.169365 H 7.3314092 c -0.9087362,0 -1.3696893,0.460953 -1.3696893,1.158968 0,0.777035 0.3160821,1.158968 0.9877567,1.619921 l 0.5268036,0.381933 -1.5145603,2.357446 H 4.7237314 L 6.1724413,17.540908 C 5.3295555,16.948254 4.8686024,16.38194 4.8686024,15.394184 c 0,-1.237989 0.8428857,-2.080875 2.4628068,-2.080875 h 1.6199211 v 6.334814 H 7.8977231 v -5.491928 h -0.03951 z"
     id="path913"
     style="stroke-width:0.131701" /><g
     id="g923"
     transform="matrix(0.1317009,0,0,0.1317009,-5.8255107,-8.825612)">
	<defs
   id="defs916" />
	<clipPath
   id="SVGID_2_">
		<use
   xlink:href="#SVGID_1_"
   style="overflow:visible"
   id="use918" />
	</clipPath>
	<path
   class="st3"
   d="m 164.1,174.1 -35.3,46.2 9.4,10.7 26.2,-34.7 -2.7,19 14.7,5.1 17.9,-28.6 c -0.8,5.3 -2.1,17.6 9.6,21.4 18.4,5.6 34.5,-27.5 41.9,-44.3 l -10.7,-5.6 c -8.3,17.4 -21.1,36.6 -26.2,35.3 -5.1,-1.3 -0.5,-17.6 2.4,-28.1 v -0.3 l -16.3,-5.6 -19.5,31.8 2.7,-17.4 z"
   clip-path="url(#SVGID_2_)"
   id="path921" />
</g></svg>
