<svg viewBox="0 0 32 32" fill="none" xmlns="http://www.w3.org/2000/svg">
  <rect width="32" height="32" rx="8" fill="url(#wb-icon-id)" />
  <path
    d="M13.3192 17.1642L11.0445 11.2356H9.29929L7.01154 17.1642L4.72379 11.2356H2.00464L6.01147 21.6612H7.75669L10.1621 15.4516L12.5806 21.6612H14.3258L18.3196 11.2356H15.62L13.3323 17.1642H13.3192Z"
    fill="white" />
  <path fill-rule="evenodd" clip-rule="evenodd"
    d="M24.4074 10.8095C23.244 10.8095 22.1851 11.1625 21.2896 11.7638V6.25363H18.7992V16.4112C18.7992 19.503 21.3157 21.9933 24.3944 21.9933C27.473 21.9933 30.0157 19.5226 30.0157 16.3851C30.0157 13.2476 27.5253 10.803 24.4074 10.803V10.8095ZM24.3944 19.503C22.708 19.503 21.2896 18.1565 21.2896 16.3982C21.2896 14.6399 22.623 13.3064 24.4074 13.3064C26.1919 13.3064 27.5253 14.6987 27.5253 16.3982C27.5253 18.0976 26.1069 19.503 24.3944 19.503Z"
    fill="white" />
  <defs>
    <linearGradient id="wb-icon-id" x1="23.3043" y1="6.92148e-07" x2="38.3169" y2="3.30486"
      gradientUnits="userSpaceOnUse">
      <stop stop-color="#DA15B8" />
      <stop offset="1" stop-color="#8D06CC" />
    </linearGradient>
  </defs>
</svg>